<svg xmlns="http://www.w3.org/2000/svg" viewBox="0 0 1200 720"><defs><linearGradient id="sky" x2="0" y2="1"><stop stop-color="#89b9df"/><stop offset="1" stop-color="#f3dfb9"/></linearGradient><linearGradient id="stone" x2="0" y2="1"><stop stop-color="#d7a65f"/><stop offset="1" stop-color="#9a6134"/></linearGradient></defs><rect width="1200" height="720" fill="url(#sky)"/><path d="M0 470h1200v250H0z" fill="#b79b69"/><g fill="#6d805f"><path d="M0 420 150 300 270 405 420 245 555 410 710 285 860 410 1010 260 1200 405V500H0Z" opacity=".45"/></g><g fill="url(#stone)" stroke="#7a4a28" stroke-width="5"><rect x="90" y="360" width="1020" height="245" rx="8"/><rect x="535" y="115" width="130" height="490"/><rect x="515" y="95" width="170" height="36"/><rect x="555" y="58" width="90" height="40"/></g><g fill="#4c2f20"><path d="M140 455h110v150H140zM310 455h110v150H310zM760 455h110v150H760zM930 455h110v150H930z"/><path d="M565 215h70v95h-70zM565 345h70v95h-70z"/></g><g fill="none" stroke="#f0d39b" stroke-width="14"><path d="M120 520q75-115 150 0M290 520q75-115 150 0M740 520q75-115 150 0M910 520q75-115 150 0"/></g><g fill="#174335"><circle cx="190" cy="610" r="22"/><circle cx="350" cy="615" r="20"/><circle cx="850" cy="610" r="22"/><circle cx="1000" cy="615" r="20"/></g><rect x="20" y="20" width="1160" height="680" rx="28" fill="none" stroke="#d8a737" stroke-width="7"/><text x="55" y="675" font-family="serif" font-size="32" fill="#fff7df">The Almohad minaret of Seville • al-Andalus</text></svg>