<svg xmlns="http://www.w3.org/2000/svg" width="900" height="1273" viewBox="0 0 900 1273" role="img" aria-labelledby="t d"><title id="t">المرابطون — من الصحراء المغربية إلى بناء إمبراطورية</title><desc id="d">غلاف كتاب تاريخي من تأليف ولد صنهاجة</desc><defs><linearGradient id="bg" x1="0" y1="0" x2="0" y2="1"><stop offset="0" stop-color="#073d35"/><stop offset=".58" stop-color="#0d4f43"/><stop offset="1" stop-color="#9b7040"/></linearGradient><linearGradient id="sand" x1="0" y1="0" x2="1" y2="0"><stop stop-color="#b88a4d"/><stop offset=".5" stop-color="#dfb967"/><stop offset="1" stop-color="#996838"/></linearGradient><filter id="shadow"><feDropShadow dx="0" dy="8" stdDeviation="9" flood-opacity=".35"/></filter></defs><rect width="900" height="1273" fill="url(#bg)"/><rect x="22" y="22" width="856" height="1229" rx="24" fill="none" stroke="#d3a84b" stroke-width="5"/><rect x="39" y="39" width="822" height="1195" rx="18" fill="none" stroke="#9d7939" stroke-width="2"/><path d="M0 845 Q190 765 355 830 T900 810 V1273 H0Z" fill="url(#sand)" opacity=".9"/><path d="M0 945 Q210 875 425 930 T900 905 V1273 H0Z" fill="#6f4c2f" opacity=".36"/><g opacity=".95" fill="#edd082"><path d="M173 744h265v22H173zM201 681h212v63H201zM237 607h140v74H237z"/><path d="M280 502h55v105h-55zM292 440h31v62h-31z"/><path d="M250 590l57-72 57 72z"/></g><g fill="#1d2e28" opacity=".85"><circle cx="550" cy="856" r="62"/><rect x="511" y="874" width="78" height="160" rx="30"/><circle cx="675" cy="908" r="39"/><rect x="650" y="935" width="50" height="128" rx="22"/><circle cx="438" cy="930" r="36"/><rect x="416" y="953" width="45" height="117" rx="20"/></g><path d="M574 789 L759 642 L756 832Z" fill="#173f32" stroke="#d3a84b" stroke-width="4"/><path d="M575 790v240" stroke="#241f19" stroke-width="9"/><text x="450" y="205" text-anchor="middle" font-family="Amiri, Noto Naskh Arabic, serif" font-weight="700" font-size="118" fill="#f0d287" filter="url(#shadow)">المرابطون</text><text x="450" y="290" text-anchor="middle" font-family="Amiri, Noto Naskh Arabic, serif" font-weight="700" font-size="40" fill="#fff3d0">من الصحراء المغربية إلى بناء إمبراطورية</text><text x="450" y="352" text-anchor="middle" font-family="Amiri, Noto Naskh Arabic, serif" font-size="27" fill="#f1e0b1">بحث تاريخي موثق في 79 صفحة</text><rect x="222" y="1110" width="456" height="82" rx="16" fill="#ead095" stroke="#8d672f" stroke-width="3"/><text x="450" y="1165" text-anchor="middle" font-family="Amiri, Noto Naskh Arabic, serif" font-weight="700" font-size="34" fill="#17372d">تأليف: ولد صنهاجة</text></svg>